<svg xmlns="http://www.w3.org/2000/svg" viewBox="0 0 512 512" id="fruits"><path d="M488,240H476.686a88.02,88.02,0,0,0-11.519-72.825c-9.4-14.022-13.1-29.154-10.408-42.609a64.591,64.591,0,0,0-58.31-76.4C391.529,31.818,380.792,16,360,16a8,8,0,0,0,0,16c3.419,0,13.679.012,19.919,17.14A64.025,64.025,0,0,0,328,112a64.15,64.15,0,0,0,1.057,11.609,55.317,55.317,0,0,1-2.175,29,39.837,39.837,0,0,0-14.909.205c.006-.27.027-.539.027-.81a40,40,0,0,0-80,0c0,1.1.061,2.191.15,3.282a40.158,40.158,0,0,0-12.4,8.431A96.185,96.185,0,0,0,130.4,96.031C133.407,80.292,139.721,64,152,64a8,8,0,0,0,0-16c-10,0-22.763,4.622-31.277,24.488A72.082,72.082,0,0,0,56,32a8,8,0,0,0-8,8,72.076,72.076,0,0,0,40.274,64.613A95.966,95.966,0,0,0,44.875,240H24a8,8,0,0,0-8,8c0,66.192,24.931,128.436,70.2,175.266C131.54,470.169,191.842,496,256,496s124.46-25.831,169.8-72.734C471.069,376.436,496,314.192,496,248A8,8,0,0,0,488,240ZM344.792,120.709A48.213,48.213,0,0,1,344,112a48.023,48.023,0,0,1,39.472-47.246A71.983,71.983,0,0,1,384,72.009,8,8,0,0,0,400,72c0-2.25-.119-4.74-.368-7.372a48.016,48.016,0,0,1,39.439,56.8c-3.537,17.663,1.012,37.075,12.808,54.662a71.861,71.861,0,0,1,8,63.913H399.188a39.967,39.967,0,0,0-26.014-45.76C389.461,187.209,400,174.465,400,160a8,8,0,0,0-16,0c0,9.747-10.412,18.6-25.209,22.241a40.124,40.124,0,0,0-17.016-23.768A71.166,71.166,0,0,0,344.792,120.709ZM145.376,240a24,24,0,1,1,45.248,0Zm64,0a24,24,0,1,1,45.248,0Zm64,0a24,24,0,1,1,45.248,0Zm64,0a24,24,0,1,1,45.248,0ZM344,192a24.286,24.286,0,0,1-.258,3.467A40.235,40.235,0,0,0,328,208.028,39.964,39.964,0,0,0,296,192a24,24,0,0,1,48,0Zm-72-64a23.988,23.988,0,0,1,21.956,33.678,40.233,40.233,0,0,0-9.956,12.9A40.048,40.048,0,0,0,248,152,24.028,24.028,0,0,1,272,128Zm-24,40a23.988,23.988,0,0,1,21.956,33.678,40.341,40.341,0,0,0-5.956,6.35A39.99,39.99,0,0,0,224.025,192.8c-.009-.266-.025-.532-.025-.8A24.028,24.028,0,0,1,248,168ZM64.67,48.67a56.135,56.135,0,0,1,46.66,46.66A56.135,56.135,0,0,1,64.67,48.67ZM48,192a80.13,80.13,0,0,1,64.225-78.43c-.218,3.769-.225,6.174-.225,6.43a8,8,0,0,0,16,0c0-2.148.1-4.887.325-7.992A80.086,80.086,0,0,1,208,192a80.994,80.994,0,0,1-.451,8.376A40.346,40.346,0,0,0,200,208.028,39.985,39.985,0,0,0,128.812,240H64A80.151,80.151,0,0,1,48,192Zm431.87,64q-.261,8.052-1.051,16H33.181q-.783-7.946-1.051-16ZM414.3,412.146C372,455.9,315.781,480,256,480S140,455.9,97.7,412.146A233.144,233.144,0,0,1,35.3,288H476.7A233.144,233.144,0,0,1,414.3,412.146Z"></path></svg>