<svg xmlns="http://www.w3.org/2000/svg" enable-background="new 0 0 50 50" viewBox="0 0 50 50" id="spinach"><path d="M24.99975,49.00018c0.5522,0,1-0.4477,1-1v-11.8326c12.9569-0.3162,15.7212-6.8434,15.7212-12.3432v-5.3686
		c0-0.334-0.1666-0.646-0.4444-0.8315c-0.2783-0.1851-0.6304-0.2212-0.938-0.0923l-1.8305,0.7578
		c0.8017-5.0947-1.3233-8.8653-1.4253-9.0425c-0.1504-0.2612-0.4107-0.4404-0.7085-0.4878
		c-0.3008-0.0508-0.60159,0.0415-0.8257,0.2432l-1.3726,1.2314c-2.3491-6.5185-8.5132-9.0503-8.7939-9.1626
		c-0.2383-0.0947-0.5029-0.0962-0.7412-0.0005c-0.2813,0.1123-6.4654,2.6431-8.8174,9.1636l-1.3726-1.2319
		c-0.2231-0.2002-0.5239-0.2896-0.8193-0.2442c-0.2959,0.045-0.5562,0.2207-0.709,0.4781c-0.102,0.1723-2.2397,3.8618-1.4238,9.0561
		l-1.8369-0.7607c-0.3106-0.1289-0.6612-0.0928-0.9385,0.0923c-0.2778,0.1855-0.4443,0.4975-0.4443,0.8315v5.3686
		c0,5.4969,2.7646,12.0202,15.7207,12.3429v11.8329C23.99975,48.55247,24.44745,49.00018,24.99975,49.00018z M10.27905,23.82438
		v-3.872l2.229,0.9228c0.3545,0.146,0.7627,0.0777,1.0498-0.1787c0.2861-0.2563,0.4004-0.6538,0.2934-1.0229
		c-1.0556-3.6494-0.3052-6.6983,0.2808-8.2701l1.5288,1.3721c0.2622,0.2349,0.6284,0.315,0.9653,0.2105
		c0.3364-0.105,0.5933-0.3789,0.6753-0.7217c1.3706-5.7222,6.312-8.4873,7.7105-9.1665c1.396,0.6753,6.31,3.4204,7.686,9.1665
		c0.082,0.3428,0.3389,0.6167,0.6753,0.7217c0.335,0.1045,0.7026,0.0244,0.9653-0.2105l1.5215-1.3657
		c0.5899,1.6006,1.35061,4.6875,0.29,8.2568c-0.1098,0.3697,0.0025,0.7696,0.2891,1.0274c0.2861,0.2588,0.6963,0.3291,1.0518,0.1811
		l2.23-0.9228v3.872c0,6.7305-4.5009,10.1113-13.7212,10.3366v-3.4312l6.351-5.3692c0.42191-0.3565,0.4746-0.9873,0.1182-1.4092
		s-0.98829-0.4741-1.4092-0.1182l-5.06,4.2777v-5.1232l6.351-5.3693c0.42191-0.3565,0.4746-0.9873,0.1182-1.4092
		c-0.3564-0.4209-0.98829-0.4746-1.4092-0.1182l-5.06,4.2777v-2.9803c0-0.5522-0.4478-1-1-1c-0.5523,0-1,0.4478-1,1v2.9803
		l-5.0601-4.2777c-0.4209-0.3564-1.0527-0.3027-1.4092,0.1182c-0.3564,0.4219-0.3037,1.0527,0.1182,1.4092l6.3511,5.3693v5.1232
		l-5.0601-4.2777c-0.4209-0.3559-1.0527-0.3037-1.4092,0.1182c-0.3564,0.4219-0.3037,1.0527,0.1182,1.4092l6.3511,5.3692v3.4307
		C14.77995,33.93058,10.27905,30.54978,10.27905,23.82438z"></path></svg>