<svg xmlns="http://www.w3.org/2000/svg" viewBox="0 0 64 64" id="vegetables"><path fill="#7fb800" d="M36 7a4 4 0 0 0-8 0 4 4 0 1 0 1.025 7.851L28 25h8l-1.025-10.149A3.993 3.993 0 1 0 36 7zM16 17h-6l-2.33 3.11-1.53 8.06A7.276 7.276 0 0 0 13 37a7.276 7.276 0 0 0 6.86-8.83l-1.53-8.06z"></path><path fill="#2d3142" d="m19 21-3-4-3 4-3-4-3 4v-4a6 6 0 0 1 6-6 6 6 0 0 1 6 6Z"></path><path fill="#ff9f1c" d="M61 18c0 3.87-3.13 32-7 32-3.19 0-5.88-19.12-6.73-28-.17-1.89-.27-3.32-.27-4a6.861 6.861 0 0 1 1.65-4.5A7 7 0 0 1 61 18Z"></path><path fill="#7fb800" d="M59.36 13.5a6.985 6.985 0 0 1-10.71 0 6.985 6.985 0 0 1 10.71 0zM42 43a4 4 0 0 0-8 0 4 4 0 1 0 1.025 7.851L34 61h8l-1.025-10.149A3.993 3.993 0 1 0 42 43z"></path><path fill="#f71735" d="M14.357 61H7.643a3.946 3.946 0 0 1-3.953-3.512l-.646-6.328a5.539 5.539 0 0 1 6.746-6.026 5.707 5.707 0 0 0 2.42 0 5.539 5.539 0 0 1 6.746 6.026l-.646 6.328A3.946 3.946 0 0 1 14.357 61Z"></path><path d="M36.742 25.671a1 1 0 0 0 .253-.772L36.1 16a5 5 0 0 0 .819-9.915 5 5 0 0 0-9.832 0A5 5 0 0 0 27.9 16l-.9 8.9a1 1 0 0 0 1 1.1h8a1 1 0 0 0 .742-.329zm-2.414-11.582a1 1 0 0 0-.348.862L34.894 24h-5.788l.914-9.049a1 1 0 0 0-1.254-1.066A2.96 2.96 0 0 1 28 14a3 3 0 0 1 0-6 1 1 0 0 0 1-1 3 3 0 0 1 6 0 1 1 0 0 0 1 1 3 3 0 0 1 0 6 2.96 2.96 0 0 1-.766-.115.994.994 0 0 0-.906.204zm-14.671 7.652A.993.993 0 0 0 20 21v-4a7.006 7.006 0 0 0-6.069-6.931A7.006 7.006 0 0 0 7 4v2a5 5 0 0 1 4.908 4.094A7.006 7.006 0 0 0 6 17v4a.989.989 0 0 0 .343.74l-1.186 6.242a8.615 8.615 0 0 0 1.8 7.131 7.768 7.768 0 0 0 12.086 0 8.614 8.614 0 0 0 1.8-7.13zM8 17a5 5 0 0 1 10 0v1l-1.2-1.6a1.036 1.036 0 0 0-1.6 0L13 19.333 10.8 16.4a1 1 0 0 0-1.6 0L8 18zm9.5 16.838a5.768 5.768 0 0 1-9 0 6.618 6.618 0 0 1-1.376-5.482L8.61 20.52 10 18.667l2.2 2.933a1.036 1.036 0 0 0 1.6 0l2.2-2.933 1.39 1.853 1.488 7.837a6.617 6.617 0 0 1-1.378 5.481z"></path><path d="M10 25v2a5.006 5.006 0 0 1 5 5h2a7.009 7.009 0 0 0-7-7zm45.049-14.924C55.374 6.653 57.467 4 60 4V2c-2.548 0-4.775 1.765-6 4.388C52.775 3.765 50.548 2 48 2v2c2.532 0 4.626 2.653 4.951 6.076a7.882 7.882 0 0 0-5.059 2.773l-.006.007-.005.005A7.9 7.9 0 0 0 46 18c0 .7.092 2.071.274 4.1.437 4.558 1.324 11.532 2.5 17.43C50.8 49.637 52.552 51 54 51c5.638 0 8-32.67 8-33a7.99 7.99 0 0 0-6.951-7.924zm-4.924 3.358a5.877 5.877 0 0 1 .774-.572l.017-.009a5.859 5.859 0 0 1 .854-.416c.055-.022.109-.046.165-.067a5.892 5.892 0 0 1 .9-.251c.06-.012.12-.02.18-.03a5.473 5.473 0 0 1 1.966 0c.06.01.121.018.182.03a6 6 0 0 1 .9.251c.058.021.115.046.172.069a5.919 5.919 0 0 1 .832.4l.041.022a5.865 5.865 0 0 1 .766.563c.03.025.06.05.089.077a5.992 5.992 0 0 1-7.919 0zM59.558 24H56v2h3.327c-.3 2.5-.7 5.271-1.14 8H55v2h2.848c-1.158 6.628-2.591 12.525-3.8 13.007C52.734 48.5 50.9 41.324 49.5 32H53v-2h-3.788c-.311-2.253-.6-4.6-.838-7H51v-2h-2.813c-.121-1.433-.187-2.487-.187-3a5.934 5.934 0 0 1 .785-2.953 7.947 7.947 0 0 0 10.436 0A5.986 5.986 0 0 1 60 18c0 1.291-.163 3.432-.442 6zM30 8v2a3 3 0 0 1 3 3h2a5.006 5.006 0 0 0-5-5zm12.916 34.084a5 5 0 0 0-9.832 0A5 5 0 0 0 33.9 52l-.9 8.9a1 1 0 0 0 1 1.1h8a1 1 0 0 0 1-1.1l-.9-8.9a5 5 0 0 0 .819-9.915zM42 50a2.96 2.96 0 0 1-.766-.115 1 1 0 0 0-1.254 1.066L40.894 60h-5.788l.914-9.049a1 1 0 0 0-1.254-1.066A2.96 2.96 0 0 1 34 50a3 3 0 0 1 0-6 1 1 0 0 0 1-1 3 3 0 0 1 6 0 1 1 0 0 0 1 1 3 3 0 0 1 0 6z"></path><path d="M36 44v2a3 3 0 0 1 3 3h2a5.006 5.006 0 0 0-5-5zm-24 .157c-.017 0-.035 0-.052.006A7.007 7.007 0 0 0 5 38v2a5 5 0 0 1 4.913 4.143A6.649 6.649 0 0 0 4.1 45.736a6.341 6.341 0 0 0-2.05 5.526l.65 6.328A4.931 4.931 0 0 0 7.643 62h6.714a4.931 4.931 0 0 0 4.948-4.41l.642-6.3a6.352 6.352 0 0 0-2.048-5.55A6.649 6.649 0 0 0 12 44.157zm5.963 6.9-.646 6.328A2.934 2.934 0 0 1 14.357 60H7.643a2.934 2.934 0 0 1-2.957-2.613l-.649-6.353a4.377 4.377 0 0 1 1.414-3.822A4.563 4.563 0 0 1 8.554 46a4.846 4.846 0 0 1 1.023.111 6.726 6.726 0 0 0 2.846 0 4.59 4.59 0 0 1 4.126 1.1 4.389 4.389 0 0 1 1.411 3.848z"></path><path d="M8 50v2a5.006 5.006 0 0 1 5 5h2a7.009 7.009 0 0 0-7-7Z"></path></svg>